<mxfile host="app.diagrams.net" agent="Mozilla/5.0 (Windows NT 10.0; Win64; x64) AppleWebKit/537.36 (KHTML, like Gecko) Chrome/136.0.0.0 Safari/537.36" version="27.0.6">
  <diagram name="Pagina-1" id="Lc5BHndVS8w86nZG58rK">
    <mxGraphModel dx="1077" dy="517" grid="1" gridSize="10" guides="1" tooltips="1" connect="1" arrows="1" fold="1" page="1" pageScale="1" pageWidth="827" pageHeight="1169" math="0" shadow="0">
      <root>
        <mxCell id="0" />
        <mxCell id="1" parent="0" />
        <mxCell id="TkNykTMZ6LGWeor_kqFa-1" value="turno_storico" style="rounded=0;whiteSpace=wrap;html=1;" vertex="1" parent="1">
          <mxGeometry x="90" y="100" width="120" height="60" as="geometry" />
        </mxCell>
        <mxCell id="TkNykTMZ6LGWeor_kqFa-2" value="ha" style="rhombus;whiteSpace=wrap;html=1;" vertex="1" parent="1">
          <mxGeometry x="310" y="90" width="80" height="80" as="geometry" />
        </mxCell>
        <mxCell id="TkNykTMZ6LGWeor_kqFa-3" value="utente" style="rounded=0;whiteSpace=wrap;html=1;" vertex="1" parent="1">
          <mxGeometry x="490" y="100" width="120" height="60" as="geometry" />
        </mxCell>
        <mxCell id="TkNykTMZ6LGWeor_kqFa-4" value="ha" style="rhombus;whiteSpace=wrap;html=1;" vertex="1" parent="1">
          <mxGeometry x="110" y="250" width="80" height="80" as="geometry" />
        </mxCell>
        <mxCell id="TkNykTMZ6LGWeor_kqFa-5" value="frase" style="rounded=0;whiteSpace=wrap;html=1;" vertex="1" parent="1">
          <mxGeometry x="90" y="430" width="120" height="60" as="geometry" />
        </mxCell>
        <mxCell id="TkNykTMZ6LGWeor_kqFa-6" value="accede" style="rhombus;whiteSpace=wrap;html=1;" vertex="1" parent="1">
          <mxGeometry x="510" y="250" width="80" height="80" as="geometry" />
        </mxCell>
        <mxCell id="TkNykTMZ6LGWeor_kqFa-7" value="ha" style="rhombus;whiteSpace=wrap;html=1;" vertex="1" parent="1">
          <mxGeometry x="310" y="420" width="80" height="80" as="geometry" />
        </mxCell>
        <mxCell id="TkNykTMZ6LGWeor_kqFa-8" value="rooms" style="rounded=0;whiteSpace=wrap;html=1;" vertex="1" parent="1">
          <mxGeometry x="490" y="430" width="120" height="60" as="geometry" />
        </mxCell>
        <mxCell id="TkNykTMZ6LGWeor_kqFa-9" value="" style="endArrow=none;html=1;rounded=0;exitX=1;exitY=0.5;exitDx=0;exitDy=0;" edge="1" parent="1" source="TkNykTMZ6LGWeor_kqFa-1" target="TkNykTMZ6LGWeor_kqFa-2">
          <mxGeometry width="50" height="50" relative="1" as="geometry">
            <mxPoint x="330" y="470" as="sourcePoint" />
            <mxPoint x="380" y="420" as="targetPoint" />
          </mxGeometry>
        </mxCell>
        <mxCell id="TkNykTMZ6LGWeor_kqFa-10" value="" style="endArrow=none;html=1;rounded=0;entryX=1;entryY=0.5;entryDx=0;entryDy=0;exitX=0;exitY=0.5;exitDx=0;exitDy=0;" edge="1" parent="1" source="TkNykTMZ6LGWeor_kqFa-3" target="TkNykTMZ6LGWeor_kqFa-2">
          <mxGeometry width="50" height="50" relative="1" as="geometry">
            <mxPoint x="330" y="470" as="sourcePoint" />
            <mxPoint x="380" y="420" as="targetPoint" />
          </mxGeometry>
        </mxCell>
        <mxCell id="TkNykTMZ6LGWeor_kqFa-11" value="" style="endArrow=none;html=1;rounded=0;entryX=0.5;entryY=1;entryDx=0;entryDy=0;exitX=0.5;exitY=0;exitDx=0;exitDy=0;" edge="1" parent="1" source="TkNykTMZ6LGWeor_kqFa-6" target="TkNykTMZ6LGWeor_kqFa-3">
          <mxGeometry width="50" height="50" relative="1" as="geometry">
            <mxPoint x="500" y="140" as="sourcePoint" />
            <mxPoint x="400" y="140" as="targetPoint" />
          </mxGeometry>
        </mxCell>
        <mxCell id="TkNykTMZ6LGWeor_kqFa-12" value="" style="endArrow=none;html=1;rounded=0;exitX=0.5;exitY=0;exitDx=0;exitDy=0;" edge="1" parent="1" source="TkNykTMZ6LGWeor_kqFa-8" target="TkNykTMZ6LGWeor_kqFa-6">
          <mxGeometry width="50" height="50" relative="1" as="geometry">
            <mxPoint x="510" y="150" as="sourcePoint" />
            <mxPoint x="410" y="150" as="targetPoint" />
          </mxGeometry>
        </mxCell>
        <mxCell id="TkNykTMZ6LGWeor_kqFa-13" value="" style="endArrow=none;html=1;rounded=0;entryX=1;entryY=0.5;entryDx=0;entryDy=0;exitX=0;exitY=0.5;exitDx=0;exitDy=0;" edge="1" parent="1" source="TkNykTMZ6LGWeor_kqFa-8" target="TkNykTMZ6LGWeor_kqFa-7">
          <mxGeometry width="50" height="50" relative="1" as="geometry">
            <mxPoint x="520" y="160" as="sourcePoint" />
            <mxPoint x="420" y="160" as="targetPoint" />
          </mxGeometry>
        </mxCell>
        <mxCell id="TkNykTMZ6LGWeor_kqFa-14" value="" style="endArrow=none;html=1;rounded=0;exitX=0;exitY=0.5;exitDx=0;exitDy=0;" edge="1" parent="1" source="TkNykTMZ6LGWeor_kqFa-7" target="TkNykTMZ6LGWeor_kqFa-5">
          <mxGeometry width="50" height="50" relative="1" as="geometry">
            <mxPoint x="530" y="170" as="sourcePoint" />
            <mxPoint x="430" y="170" as="targetPoint" />
          </mxGeometry>
        </mxCell>
        <mxCell id="TkNykTMZ6LGWeor_kqFa-15" value="" style="endArrow=none;html=1;rounded=0;exitX=0.5;exitY=0;exitDx=0;exitDy=0;" edge="1" parent="1" source="TkNykTMZ6LGWeor_kqFa-5" target="TkNykTMZ6LGWeor_kqFa-4">
          <mxGeometry width="50" height="50" relative="1" as="geometry">
            <mxPoint x="540" y="180" as="sourcePoint" />
            <mxPoint x="440" y="180" as="targetPoint" />
          </mxGeometry>
        </mxCell>
        <mxCell id="TkNykTMZ6LGWeor_kqFa-16" value="" style="endArrow=none;html=1;rounded=0;entryX=0.5;entryY=0;entryDx=0;entryDy=0;exitX=0.5;exitY=1;exitDx=0;exitDy=0;" edge="1" parent="1" source="TkNykTMZ6LGWeor_kqFa-1" target="TkNykTMZ6LGWeor_kqFa-4">
          <mxGeometry width="50" height="50" relative="1" as="geometry">
            <mxPoint x="550" y="190" as="sourcePoint" />
            <mxPoint x="450" y="190" as="targetPoint" />
          </mxGeometry>
        </mxCell>
        <mxCell id="TkNykTMZ6LGWeor_kqFa-17" value="accuratezza" style="text;html=1;align=center;verticalAlign=middle;resizable=0;points=[];autosize=1;strokeColor=none;fillColor=none;" vertex="1" parent="1">
          <mxGeometry x="40" y="45" width="90" height="30" as="geometry" />
        </mxCell>
        <mxCell id="TkNykTMZ6LGWeor_kqFa-18" value="tempo" style="text;html=1;align=center;verticalAlign=middle;resizable=0;points=[];autosize=1;strokeColor=none;fillColor=none;" vertex="1" parent="1">
          <mxGeometry x="140" y="45" width="60" height="30" as="geometry" />
        </mxCell>
        <mxCell id="TkNykTMZ6LGWeor_kqFa-19" value="velocita" style="text;html=1;align=center;verticalAlign=middle;resizable=0;points=[];autosize=1;strokeColor=none;fillColor=none;" vertex="1" parent="1">
          <mxGeometry x="180" y="45" width="60" height="30" as="geometry" />
        </mxCell>
        <mxCell id="TkNykTMZ6LGWeor_kqFa-20" value="numero" style="text;html=1;align=center;verticalAlign=middle;resizable=0;points=[];autosize=1;strokeColor=none;fillColor=none;" vertex="1" parent="1">
          <mxGeometry x="1" y="99" width="60" height="30" as="geometry" />
        </mxCell>
        <mxCell id="TkNykTMZ6LGWeor_kqFa-21" value="id" style="text;html=1;align=center;verticalAlign=middle;resizable=0;points=[];autosize=1;strokeColor=none;fillColor=none;" vertex="1" parent="1">
          <mxGeometry x="30" y="124" width="30" height="30" as="geometry" />
        </mxCell>
        <mxCell id="TkNykTMZ6LGWeor_kqFa-22" value="data" style="text;html=1;align=center;verticalAlign=middle;resizable=0;points=[];autosize=1;strokeColor=none;fillColor=none;" vertex="1" parent="1">
          <mxGeometry x="110" y="45" width="50" height="30" as="geometry" />
        </mxCell>
        <mxCell id="TkNykTMZ6LGWeor_kqFa-23" value="testo" style="text;html=1;align=center;verticalAlign=middle;resizable=0;points=[];autosize=1;strokeColor=none;fillColor=none;" vertex="1" parent="1">
          <mxGeometry x="13" y="434" width="50" height="30" as="geometry" />
        </mxCell>
        <mxCell id="TkNykTMZ6LGWeor_kqFa-24" value="lingua" style="text;html=1;align=center;verticalAlign=middle;resizable=0;points=[];autosize=1;strokeColor=none;fillColor=none;" vertex="1" parent="1">
          <mxGeometry x="6" y="454" width="60" height="30" as="geometry" />
        </mxCell>
        <mxCell id="TkNykTMZ6LGWeor_kqFa-25" value="lunghezza" style="text;html=1;align=center;verticalAlign=middle;resizable=0;points=[];autosize=1;strokeColor=none;fillColor=none;" vertex="1" parent="1">
          <mxGeometry x="80" y="510" width="80" height="30" as="geometry" />
        </mxCell>
        <mxCell id="TkNykTMZ6LGWeor_kqFa-26" value="id" style="text;html=1;align=center;verticalAlign=middle;resizable=0;points=[];autosize=1;strokeColor=none;fillColor=none;" vertex="1" parent="1">
          <mxGeometry x="504" y="517" width="30" height="30" as="geometry" />
        </mxCell>
        <mxCell id="TkNykTMZ6LGWeor_kqFa-28" value="code" style="text;html=1;align=center;verticalAlign=middle;resizable=0;points=[];autosize=1;strokeColor=none;fillColor=none;" vertex="1" parent="1">
          <mxGeometry x="659" y="424" width="50" height="30" as="geometry" />
        </mxCell>
        <mxCell id="TkNykTMZ6LGWeor_kqFa-29" value="password" style="text;html=1;align=center;verticalAlign=middle;resizable=0;points=[];autosize=1;strokeColor=none;fillColor=none;" vertex="1" parent="1">
          <mxGeometry x="475" y="45" width="70" height="30" as="geometry" />
        </mxCell>
        <mxCell id="TkNykTMZ6LGWeor_kqFa-30" value="username" style="text;html=1;align=center;verticalAlign=middle;resizable=0;points=[];autosize=1;strokeColor=none;fillColor=none;" vertex="1" parent="1">
          <mxGeometry x="545" y="45" width="80" height="30" as="geometry" />
        </mxCell>
        <mxCell id="TkNykTMZ6LGWeor_kqFa-31" value="(1,1)" style="text;html=1;align=center;verticalAlign=middle;resizable=0;points=[];autosize=1;strokeColor=none;fillColor=none;" vertex="1" parent="1">
          <mxGeometry x="210" y="130" width="50" height="30" as="geometry" />
        </mxCell>
        <mxCell id="TkNykTMZ6LGWeor_kqFa-32" value="" style="endArrow=none;html=1;rounded=0;startArrow=oval;startFill=0;entryX=0.25;entryY=0;entryDx=0;entryDy=0;" edge="1" parent="1">
          <mxGeometry width="50" height="50" relative="1" as="geometry">
            <mxPoint x="135" y="70" as="sourcePoint" />
            <mxPoint x="135" y="100" as="targetPoint" />
          </mxGeometry>
        </mxCell>
        <mxCell id="TkNykTMZ6LGWeor_kqFa-33" value="" style="endArrow=none;html=1;rounded=0;startArrow=oval;startFill=0;" edge="1" parent="1">
          <mxGeometry width="50" height="50" relative="1" as="geometry">
            <mxPoint x="170" y="70" as="sourcePoint" />
            <mxPoint x="170" y="100" as="targetPoint" />
          </mxGeometry>
        </mxCell>
        <mxCell id="TkNykTMZ6LGWeor_kqFa-34" value="" style="endArrow=none;html=1;rounded=0;startArrow=oval;startFill=0;entryX=0.25;entryY=0;entryDx=0;entryDy=0;" edge="1" parent="1">
          <mxGeometry width="50" height="50" relative="1" as="geometry">
            <mxPoint x="200" y="70" as="sourcePoint" />
            <mxPoint x="200" y="100" as="targetPoint" />
          </mxGeometry>
        </mxCell>
        <mxCell id="TkNykTMZ6LGWeor_kqFa-35" value="" style="endArrow=none;html=1;rounded=0;startArrow=oval;startFill=0;entryX=0.25;entryY=0;entryDx=0;entryDy=0;" edge="1" parent="1">
          <mxGeometry width="50" height="50" relative="1" as="geometry">
            <mxPoint x="100" y="70" as="sourcePoint" />
            <mxPoint x="100" y="100" as="targetPoint" />
          </mxGeometry>
        </mxCell>
        <mxCell id="TkNykTMZ6LGWeor_kqFa-36" value="" style="endArrow=none;html=1;rounded=0;startArrow=oval;startFill=0;entryX=0;entryY=0.25;entryDx=0;entryDy=0;" edge="1" parent="1" target="TkNykTMZ6LGWeor_kqFa-1">
          <mxGeometry width="50" height="50" relative="1" as="geometry">
            <mxPoint x="60" y="115" as="sourcePoint" />
            <mxPoint x="160" y="140" as="targetPoint" />
          </mxGeometry>
        </mxCell>
        <mxCell id="TkNykTMZ6LGWeor_kqFa-37" value="" style="endArrow=none;html=1;rounded=0;startArrow=oval;startFill=1;entryX=0;entryY=0.25;entryDx=0;entryDy=0;" edge="1" parent="1">
          <mxGeometry width="50" height="50" relative="1" as="geometry">
            <mxPoint x="60" y="140" as="sourcePoint" />
            <mxPoint x="90" y="140" as="targetPoint" />
          </mxGeometry>
        </mxCell>
        <mxCell id="TkNykTMZ6LGWeor_kqFa-38" value="" style="endArrow=none;html=1;rounded=0;startArrow=oval;startFill=1;" edge="1" parent="1">
          <mxGeometry width="50" height="50" relative="1" as="geometry">
            <mxPoint x="61" y="450" as="sourcePoint" />
            <mxPoint x="90" y="450" as="targetPoint" />
          </mxGeometry>
        </mxCell>
        <mxCell id="TkNykTMZ6LGWeor_kqFa-39" value="" style="endArrow=none;html=1;rounded=0;startArrow=oval;startFill=0;" edge="1" parent="1">
          <mxGeometry width="50" height="50" relative="1" as="geometry">
            <mxPoint x="62" y="470" as="sourcePoint" />
            <mxPoint x="90" y="470" as="targetPoint" />
          </mxGeometry>
        </mxCell>
        <mxCell id="TkNykTMZ6LGWeor_kqFa-40" value="" style="endArrow=none;html=1;rounded=0;startArrow=oval;startFill=0;entryX=0.25;entryY=1;entryDx=0;entryDy=0;" edge="1" parent="1" target="TkNykTMZ6LGWeor_kqFa-5">
          <mxGeometry width="50" height="50" relative="1" as="geometry">
            <mxPoint x="120" y="510" as="sourcePoint" />
            <mxPoint x="100" y="460" as="targetPoint" />
          </mxGeometry>
        </mxCell>
        <mxCell id="TkNykTMZ6LGWeor_kqFa-41" value="" style="endArrow=none;html=1;rounded=0;startArrow=oval;startFill=1;entryX=0.113;entryY=1;entryDx=0;entryDy=0;entryPerimeter=0;" edge="1" parent="1">
          <mxGeometry width="50" height="50" relative="1" as="geometry">
            <mxPoint x="520" y="520" as="sourcePoint" />
            <mxPoint x="520" y="490" as="targetPoint" />
          </mxGeometry>
        </mxCell>
        <mxCell id="TkNykTMZ6LGWeor_kqFa-43" value="" style="endArrow=none;html=1;rounded=0;startArrow=oval;startFill=0;entryX=1;entryY=0.75;entryDx=0;entryDy=0;" edge="1" parent="1">
          <mxGeometry width="50" height="50" relative="1" as="geometry">
            <mxPoint x="640" y="440" as="sourcePoint" />
            <mxPoint x="610" y="440" as="targetPoint" />
          </mxGeometry>
        </mxCell>
        <mxCell id="TkNykTMZ6LGWeor_kqFa-44" value="" style="endArrow=none;html=1;rounded=0;startArrow=oval;startFill=0;entryX=0.167;entryY=0;entryDx=0;entryDy=0;entryPerimeter=0;" edge="1" parent="1" target="TkNykTMZ6LGWeor_kqFa-3">
          <mxGeometry width="50" height="50" relative="1" as="geometry">
            <mxPoint x="510" y="70" as="sourcePoint" />
            <mxPoint x="510" y="97" as="targetPoint" />
          </mxGeometry>
        </mxCell>
        <mxCell id="TkNykTMZ6LGWeor_kqFa-45" value="" style="endArrow=none;html=1;rounded=0;startArrow=oval;startFill=1;entryX=0.75;entryY=0;entryDx=0;entryDy=0;" edge="1" parent="1" target="TkNykTMZ6LGWeor_kqFa-3">
          <mxGeometry width="50" height="50" relative="1" as="geometry">
            <mxPoint x="580" y="70" as="sourcePoint" />
            <mxPoint x="520" y="107" as="targetPoint" />
          </mxGeometry>
        </mxCell>
        <mxCell id="TkNykTMZ6LGWeor_kqFa-46" value="(1,1)" style="text;html=1;align=center;verticalAlign=middle;resizable=0;points=[];autosize=1;strokeColor=none;fillColor=none;" vertex="1" parent="1">
          <mxGeometry x="150" y="170" width="50" height="30" as="geometry" />
        </mxCell>
        <mxCell id="TkNykTMZ6LGWeor_kqFa-47" value="(1,N)" style="text;html=1;align=center;verticalAlign=middle;resizable=0;points=[];autosize=1;strokeColor=none;fillColor=none;" vertex="1" parent="1">
          <mxGeometry x="150" y="390" width="50" height="30" as="geometry" />
        </mxCell>
        <mxCell id="TkNykTMZ6LGWeor_kqFa-48" value="(1,N)" style="text;html=1;align=center;verticalAlign=middle;resizable=0;points=[];autosize=1;strokeColor=none;fillColor=none;" vertex="1" parent="1">
          <mxGeometry x="220" y="424" width="50" height="30" as="geometry" />
        </mxCell>
        <mxCell id="TkNykTMZ6LGWeor_kqFa-49" value="(1,N)" style="text;html=1;align=center;verticalAlign=middle;resizable=0;points=[];autosize=1;strokeColor=none;fillColor=none;" vertex="1" parent="1">
          <mxGeometry x="435" y="424" width="50" height="30" as="geometry" />
        </mxCell>
        <mxCell id="TkNykTMZ6LGWeor_kqFa-50" value="(1,N)" style="text;html=1;align=center;verticalAlign=middle;resizable=0;points=[];autosize=1;strokeColor=none;fillColor=none;" vertex="1" parent="1">
          <mxGeometry x="496" y="390" width="50" height="30" as="geometry" />
        </mxCell>
        <mxCell id="TkNykTMZ6LGWeor_kqFa-51" value="(1,N)" style="text;html=1;align=center;verticalAlign=middle;resizable=0;points=[];autosize=1;strokeColor=none;fillColor=none;" vertex="1" parent="1">
          <mxGeometry x="490" y="170" width="50" height="30" as="geometry" />
        </mxCell>
        <mxCell id="TkNykTMZ6LGWeor_kqFa-52" value="(1,N)" style="text;html=1;align=center;verticalAlign=middle;resizable=0;points=[];autosize=1;strokeColor=none;fillColor=none;" vertex="1" parent="1">
          <mxGeometry x="440" y="130" width="50" height="30" as="geometry" />
        </mxCell>
        <mxCell id="TkNykTMZ6LGWeor_kqFa-53" value="creator" style="text;html=1;align=center;verticalAlign=middle;resizable=0;points=[];autosize=1;strokeColor=none;fillColor=none;" vertex="1" parent="1">
          <mxGeometry x="654" y="445" width="60" height="30" as="geometry" />
        </mxCell>
        <mxCell id="TkNykTMZ6LGWeor_kqFa-54" value="" style="endArrow=none;html=1;rounded=0;startArrow=oval;startFill=0;entryX=1;entryY=0.75;entryDx=0;entryDy=0;" edge="1" parent="1">
          <mxGeometry width="50" height="50" relative="1" as="geometry">
            <mxPoint x="640" y="461" as="sourcePoint" />
            <mxPoint x="610" y="461" as="targetPoint" />
          </mxGeometry>
        </mxCell>
        <mxCell id="TkNykTMZ6LGWeor_kqFa-55" value="rounds" style="text;html=1;align=center;verticalAlign=middle;resizable=0;points=[];autosize=1;strokeColor=none;fillColor=none;" vertex="1" parent="1">
          <mxGeometry x="654" y="470" width="60" height="30" as="geometry" />
        </mxCell>
        <mxCell id="TkNykTMZ6LGWeor_kqFa-56" value="" style="endArrow=none;html=1;rounded=0;startArrow=oval;startFill=0;entryX=1;entryY=0.75;entryDx=0;entryDy=0;" edge="1" parent="1">
          <mxGeometry width="50" height="50" relative="1" as="geometry">
            <mxPoint x="640" y="486" as="sourcePoint" />
            <mxPoint x="610" y="486" as="targetPoint" />
          </mxGeometry>
        </mxCell>
        <mxCell id="TkNykTMZ6LGWeor_kqFa-57" value="" style="endArrow=none;html=1;rounded=0;startArrow=oval;startFill=0;entryX=1;entryY=0.75;entryDx=0;entryDy=0;" edge="1" parent="1">
          <mxGeometry width="50" height="50" relative="1" as="geometry">
            <mxPoint x="595" y="520" as="sourcePoint" />
            <mxPoint x="595" y="490" as="targetPoint" />
          </mxGeometry>
        </mxCell>
        <mxCell id="TkNykTMZ6LGWeor_kqFa-58" value="started" style="text;html=1;align=center;verticalAlign=middle;resizable=0;points=[];autosize=1;strokeColor=none;fillColor=none;" vertex="1" parent="1">
          <mxGeometry x="566" y="517" width="60" height="30" as="geometry" />
        </mxCell>
        <mxCell id="TkNykTMZ6LGWeor_kqFa-60" value="" style="endArrow=none;html=1;rounded=0;startArrow=oval;startFill=0;entryX=1;entryY=0.75;entryDx=0;entryDy=0;" edge="1" parent="1">
          <mxGeometry width="50" height="50" relative="1" as="geometry">
            <mxPoint x="560" y="520" as="sourcePoint" />
            <mxPoint x="560" y="490" as="targetPoint" />
          </mxGeometry>
        </mxCell>
        <mxCell id="TkNykTMZ6LGWeor_kqFa-61" value="frasi" style="text;html=1;align=center;verticalAlign=middle;resizable=0;points=[];autosize=1;strokeColor=none;fillColor=none;" vertex="1" parent="1">
          <mxGeometry x="534" y="517" width="50" height="30" as="geometry" />
        </mxCell>
        <mxCell id="TkNykTMZ6LGWeor_kqFa-62" value="room_players" style="rounded=0;whiteSpace=wrap;html=1;" vertex="1" parent="1">
          <mxGeometry x="330" y="620" width="120" height="60" as="geometry" />
        </mxCell>
        <mxCell id="TkNykTMZ6LGWeor_kqFa-63" value="room_code" style="text;html=1;align=center;verticalAlign=middle;resizable=0;points=[];autosize=1;strokeColor=none;fillColor=none;" vertex="1" parent="1">
          <mxGeometry x="484" y="610" width="80" height="30" as="geometry" />
        </mxCell>
        <mxCell id="TkNykTMZ6LGWeor_kqFa-64" value="" style="endArrow=none;html=1;rounded=0;startArrow=oval;startFill=0;entryX=1;entryY=0.75;entryDx=0;entryDy=0;" edge="1" parent="1">
          <mxGeometry width="50" height="50" relative="1" as="geometry">
            <mxPoint x="480" y="626" as="sourcePoint" />
            <mxPoint x="450" y="626" as="targetPoint" />
          </mxGeometry>
        </mxCell>
        <mxCell id="TkNykTMZ6LGWeor_kqFa-65" value="username" style="text;html=1;align=center;verticalAlign=middle;resizable=0;points=[];autosize=1;strokeColor=none;fillColor=none;" vertex="1" parent="1">
          <mxGeometry x="484" y="631" width="80" height="30" as="geometry" />
        </mxCell>
        <mxCell id="TkNykTMZ6LGWeor_kqFa-66" value="" style="endArrow=none;html=1;rounded=0;startArrow=oval;startFill=0;entryX=1;entryY=0.75;entryDx=0;entryDy=0;" edge="1" parent="1">
          <mxGeometry width="50" height="50" relative="1" as="geometry">
            <mxPoint x="480" y="647" as="sourcePoint" />
            <mxPoint x="450" y="647" as="targetPoint" />
          </mxGeometry>
        </mxCell>
        <mxCell id="TkNykTMZ6LGWeor_kqFa-67" value="join_time" style="text;html=1;align=center;verticalAlign=middle;resizable=0;points=[];autosize=1;strokeColor=none;fillColor=none;" vertex="1" parent="1">
          <mxGeometry x="489" y="656" width="70" height="30" as="geometry" />
        </mxCell>
        <mxCell id="TkNykTMZ6LGWeor_kqFa-68" value="" style="endArrow=none;html=1;rounded=0;startArrow=oval;startFill=0;entryX=1;entryY=0.75;entryDx=0;entryDy=0;" edge="1" parent="1">
          <mxGeometry width="50" height="50" relative="1" as="geometry">
            <mxPoint x="480" y="672" as="sourcePoint" />
            <mxPoint x="450" y="672" as="targetPoint" />
          </mxGeometry>
        </mxCell>
        <mxCell id="TkNykTMZ6LGWeor_kqFa-70" value="id" style="text;html=1;align=center;verticalAlign=middle;resizable=0;points=[];autosize=1;strokeColor=none;fillColor=none;" vertex="1" parent="1">
          <mxGeometry x="318" y="707" width="30" height="30" as="geometry" />
        </mxCell>
        <mxCell id="TkNykTMZ6LGWeor_kqFa-71" value="" style="endArrow=none;html=1;rounded=0;startArrow=oval;startFill=1;entryX=0.113;entryY=1;entryDx=0;entryDy=0;entryPerimeter=0;" edge="1" parent="1">
          <mxGeometry width="50" height="50" relative="1" as="geometry">
            <mxPoint x="334" y="710" as="sourcePoint" />
            <mxPoint x="334" y="680" as="targetPoint" />
          </mxGeometry>
        </mxCell>
        <mxCell id="TkNykTMZ6LGWeor_kqFa-72" value="" style="endArrow=none;html=1;rounded=0;startArrow=oval;startFill=0;entryX=1;entryY=0.75;entryDx=0;entryDy=0;" edge="1" parent="1">
          <mxGeometry width="50" height="50" relative="1" as="geometry">
            <mxPoint x="435" y="710" as="sourcePoint" />
            <mxPoint x="435" y="680" as="targetPoint" />
          </mxGeometry>
        </mxCell>
        <mxCell id="TkNykTMZ6LGWeor_kqFa-73" value="is_completed" style="text;html=1;align=center;verticalAlign=middle;resizable=0;points=[];autosize=1;strokeColor=none;fillColor=none;" vertex="1" parent="1">
          <mxGeometry x="390" y="707" width="90" height="30" as="geometry" />
        </mxCell>
        <mxCell id="TkNykTMZ6LGWeor_kqFa-74" value="" style="endArrow=none;html=1;rounded=0;startArrow=oval;startFill=0;entryX=1;entryY=0.75;entryDx=0;entryDy=0;" edge="1" parent="1">
          <mxGeometry width="50" height="50" relative="1" as="geometry">
            <mxPoint x="369" y="710" as="sourcePoint" />
            <mxPoint x="369" y="680" as="targetPoint" />
          </mxGeometry>
        </mxCell>
        <mxCell id="TkNykTMZ6LGWeor_kqFa-75" value="tempo" style="text;html=1;align=center;verticalAlign=middle;resizable=0;points=[];autosize=1;strokeColor=none;fillColor=none;" vertex="1" parent="1">
          <mxGeometry x="340" y="707" width="60" height="30" as="geometry" />
        </mxCell>
        <mxCell id="TkNykTMZ6LGWeor_kqFa-76" value="" style="endArrow=none;html=1;rounded=0;startArrow=oval;startFill=0;" edge="1" parent="1">
          <mxGeometry width="50" height="50" relative="1" as="geometry">
            <mxPoint x="302" y="640" as="sourcePoint" />
            <mxPoint x="330" y="640" as="targetPoint" />
          </mxGeometry>
        </mxCell>
        <mxCell id="TkNykTMZ6LGWeor_kqFa-77" value="" style="endArrow=none;html=1;rounded=0;startArrow=oval;startFill=0;" edge="1" parent="1">
          <mxGeometry width="50" height="50" relative="1" as="geometry">
            <mxPoint x="302" y="661" as="sourcePoint" />
            <mxPoint x="330" y="661" as="targetPoint" />
          </mxGeometry>
        </mxCell>
        <mxCell id="TkNykTMZ6LGWeor_kqFa-78" value="accuratezza" style="text;html=1;align=center;verticalAlign=middle;resizable=0;points=[];autosize=1;strokeColor=none;fillColor=none;" vertex="1" parent="1">
          <mxGeometry x="216" y="624" width="90" height="30" as="geometry" />
        </mxCell>
        <mxCell id="TkNykTMZ6LGWeor_kqFa-79" value="velocita" style="text;html=1;align=center;verticalAlign=middle;resizable=0;points=[];autosize=1;strokeColor=none;fillColor=none;" vertex="1" parent="1">
          <mxGeometry x="231" y="645" width="60" height="30" as="geometry" />
        </mxCell>
      </root>
    </mxGraphModel>
  </diagram>
</mxfile>
